<svg width="26" height="26" viewBox="0 0 26 26" fill="none" xmlns="http://www.w3.org/2000/svg">
<path d="M17.3333 7.58355H17.3441M3.68329 19.5002H13C15.2985 19.5002 17.5029 18.5871 19.1282 16.9618C20.7535 15.3365 21.6666 13.1321 21.6666 10.8335V7.58355C21.6691 6.66045 21.3767 5.7607 20.832 5.01539C20.2874 4.27008 19.519 3.71817 18.6388 3.44008C17.7585 3.16199 16.8125 3.17225 15.9385 3.46937C15.0646 3.76649 14.3083 4.33494 13.78 5.09188L2.16663 21.6669" stroke="#34D399" stroke-width="2" stroke-linecap="round" stroke-linejoin="round"/>
<path d="M21.6666 7.5835L23.8333 8.12516L21.6666 8.66683M10.8333 19.5002V22.7502M15.1666 19.2293V22.7502M7.58325 19.5002C8.91913 19.5001 10.2225 19.0884 11.3161 18.3212C12.4097 17.5539 13.2403 16.4684 13.6949 15.2122C14.1496 13.9561 14.2061 12.5904 13.8569 11.301C13.5077 10.0115 12.7697 8.86103 11.7433 8.006" stroke="#34D399" stroke-width="2" stroke-linecap="round" stroke-linejoin="round"/>
</svg>
